<svg id="visual" viewBox="0 0 960 540" width="960" height="540" xmlns="http://www.w3.org/2000/svg" xmlns:xlink="http://www.w3.org/1999/xlink" version="1.1"><rect x="0" y="0" width="960" height="540" fill="#CCCCCC"></rect><path d="M0 399L22.8 393.3C45.7 387.7 91.3 376.3 137 378C182.7 379.7 228.3 394.3 274 397.3C319.7 400.3 365.3 391.7 411.2 384.7C457 377.7 503 372.3 548.8 370.2C594.7 368 640.3 369 686 372.2C731.7 375.3 777.3 380.7 823 382.2C868.7 383.7 914.3 381.3 937.2 380.2L960 379L960 541L937.2 541C914.3 541 868.7 541 823 541C777.3 541 731.7 541 686 541C640.3 541 594.7 541 548.8 541C503 541 457 541 411.2 541C365.3 541 319.7 541 274 541C228.3 541 182.7 541 137 541C91.3 541 45.7 541 22.8 541L0 541Z" fill="#1f3e75"></path><path d="M0 445L22.8 440.7C45.7 436.3 91.3 427.7 137 421.3C182.7 415 228.3 411 274 413.5C319.7 416 365.3 425 411.2 424.5C457 424 503 414 548.8 415C594.7 416 640.3 428 686 433.8C731.7 439.7 777.3 439.3 823 433.8C868.7 428.3 914.3 417.7 937.2 412.3L960 407L960 541L937.2 541C914.3 541 868.7 541 823 541C777.3 541 731.7 541 686 541C640.3 541 594.7 541 548.8 541C503 541 457 541 411.2 541C365.3 541 319.7 541 274 541C228.3 541 182.7 541 137 541C91.3 541 45.7 541 22.8 541L0 541Z" fill="#0f2f53"></path><path d="M0 464L22.8 461.7C45.7 459.3 91.3 454.7 137 453.8C182.7 453 228.3 456 274 460.7C319.7 465.3 365.3 471.7 411.2 468.5C457 465.3 503 452.7 548.8 447.2C594.7 441.7 640.3 443.3 686 444.2C731.7 445 777.3 445 823 449.8C868.7 454.7 914.3 464.3 937.2 469.2L960 474L960 541L937.2 541C914.3 541 868.7 541 823 541C777.3 541 731.7 541 686 541C640.3 541 594.7 541 548.8 541C503 541 457 541 411.2 541C365.3 541 319.7 541 274 541C228.3 541 182.7 541 137 541C91.3 541 45.7 541 22.8 541L0 541Z" fill="#0d1f32"></path><path d="M0 508L22.8 504.5C45.7 501 91.3 494 137 489.8C182.7 485.7 228.3 484.3 274 486.2C319.7 488 365.3 493 411.2 493.5C457 494 503 490 548.8 489.3C594.7 488.7 640.3 491.3 686 493.2C731.7 495 777.3 496 823 498.3C868.7 500.7 914.3 504.3 937.2 506.2L960 508L960 541L937.2 541C914.3 541 868.7 541 823 541C777.3 541 731.7 541 686 541C640.3 541 594.7 541 548.8 541C503 541 457 541 411.2 541C365.3 541 319.7 541 274 541C228.3 541 182.7 541 137 541C91.3 541 45.7 541 22.8 541L0 541Z" fill="#060d14"></path></svg>